<?xml version="1.0" encoding="UTF-8" standalone="no"?>
<!DOCTYPE svg PUBLIC "-//W3C//DTD SVG 1.1//EN" "http://www.w3.org/Graphics/SVG/1.1/DTD/svg11.dtd">
<svg xmlns="http://www.w3.org/2000/svg" version="1.1" viewBox="0.00 0.00 626.00 501.00">
<g stroke-width="2.00" fill="none" stroke-linecap="butt">
<path stroke="#817d70" vector-effect="non-scaling-stroke" d="
  M 268.56 68.18
  L 245.47 70.62"
/>
<path stroke="#573003" vector-effect="non-scaling-stroke" d="
  M 245.47 70.62
  Q 243.93 70.34 243.04 70.91"
/>
<path stroke="#817d70" vector-effect="non-scaling-stroke" d="
  M 243.04 70.91
  L 214.78 75.59"
/>
<path stroke="#82720e" vector-effect="non-scaling-stroke" d="
  M 214.78 75.59
  Q 204.07 77.34 194.04 80.53"
/>
<path stroke="#6c4002" vector-effect="non-scaling-stroke" d="
  M 194.04 80.53
  L 184.33 84.22
  Q 183.78 84.43 183.82 85.01
  L 184.76 97.62
  Q 184.79 98.05 185.19 97.90
  Q 196.93 93.40 210.76 90.67
  Q 224.01 88.06 239.52 86.36
  Q 250.80 85.12 262.03 83.81"
/>
<path stroke="#573003" vector-effect="non-scaling-stroke" d="
  M 262.03 83.81
  L 266.12 83.87
  A 0.50 0.49 -85.4 0 1 266.60 84.44
  Q 266.55 84.74 266.22 85.15"
/>
<path stroke="#82720e" vector-effect="non-scaling-stroke" d="
  M 266.22 85.15
  L 257.28 86.72"
/>
<path stroke="#6c4002" vector-effect="non-scaling-stroke" d="
  M 257.28 86.72
  Q 255.18 86.66 253.00 87.04
  Q 238.49 89.64 223.48 94.13
  C 209.17 98.41 196.73 103.78 187.06 111.79
  Q 186.57 112.20 186.65 112.83
  Q 191.83 153.59 204.52 192.74
  Q 206.25 198.07 208.17 203.17"
/>
<path stroke="#613402" vector-effect="non-scaling-stroke" d="
  M 208.17 203.17
  Q 217.70 230.32 233.18 254.32
  C 243.45 270.24 256.89 284.99 272.90 294.42
  Q 275.85 296.16 273.56 293.61
  Q 267.69 287.05 263.15 277.91
  Q 262.76 277.11 263.37 277.76
  Q 275.20 290.40 292.94 295.15
  C 316.90 301.56 345.22 296.61 362.56 277.74
  Q 363.21 277.03 362.79 277.89
  Q 358.31 287.25 352.06 293.93
  Q 351.68 294.34 351.61 294.89
  Q 351.54 295.43 352.00 295.15
  C 369.40 284.63 382.30 270.45 393.65 253.33"
/>
<path stroke="#82720e" vector-effect="non-scaling-stroke" d="
  M 393.65 253.33
  C 411.71 224.40 423.13 192.52 430.96 159.05
  Q 436.37 135.96 439.37 112.70
  Q 439.43 112.20 439.03 111.90
  L 432.39 106.90"
/>
<path stroke="#6c4002" vector-effect="non-scaling-stroke" d="
  M 432.39 106.90
  C 420.90 99.96 408.06 95.43 394.99 92.01
  C 383.96 89.12 372.47 86.35 361.11 84.76
  Q 358.03 84.32 361.13 84.09
  C 364.48 83.85 367.93 84.64 371.33 84.86
  Q 384.80 85.71 401.50 88.23
  Q 417.90 90.70 433.00 95.05"
/>
<path stroke="#82720e" vector-effect="non-scaling-stroke" d="
  M 433.00 95.05
  L 440.82 97.94
  A 0.31 0.31 0.0 0 0 441.24 97.67
  L 442.17 84.79
  A 0.56 0.56 0.0 0 0 441.82 84.24
  L 434.19 81.15"
/>
<path stroke="#6c4002" vector-effect="non-scaling-stroke" d="
  M 434.19 81.15
  Q 417.93 76.29 400.80 73.58"
/>
<path stroke="#82720e" vector-effect="non-scaling-stroke" d="
  M 400.80 73.58
  Q 349.11 64.77 296.81 66.15"
/>
<path stroke="#573003" vector-effect="non-scaling-stroke" d="
  M 296.81 66.15
  Q 290.61 65.86 286.25 66.14
  C 285.01 66.23 283.90 66.98 282.55 66.93
  Q 275.44 66.66 268.56 68.18"
/>
<path stroke="#d5a10f" vector-effect="non-scaling-stroke" d="
  M 296.81 66.15
  L 292.55 66.37
  A 0.89 0.86 18.5 0 0 291.94 66.66
  Q 291.64 67.01 291.18 66.92
  Q 290.74 66.84 290.27 66.87
  Q 284.23 67.34 278.24 67.38
  Q 277.04 67.39 274.80 67.72
  Q 273.07 67.97 271.31 67.88"
/>
<path stroke="#d4ac71" vector-effect="non-scaling-stroke" d="
  M 271.31 67.88
  Q 270.11 68.29 268.56 68.18"
/>
<path stroke="#e9b10e" vector-effect="non-scaling-stroke" d="
  M 400.80 73.58
  L 400.17 82.62
  A 0.77 0.77 0.0 0 1 399.31 83.33
  Q 376.71 80.38 358.46 79.89
  Q 332.91 79.19 307.33 80.42
  Q 307.18 80.43 307.18 80.58
  L 307.18 80.59
  Q 307.18 80.76 307.35 80.76
  Q 354.19 83.16 398.10 99.61
  Q 399.06 99.97 398.98 100.99
  Q 396.29 133.13 389.82 164.59
  Q 386.22 182.06 380.79 198.50
  C 375.13 215.62 366.76 232.66 354.51 246.06"
/>
<path stroke="#dea50e" vector-effect="non-scaling-stroke" d="
  M 354.51 246.06
  C 343.70 257.70 329.49 264.79 313.57 265.31
  C 268.45 266.79 242.24 228.18 227.41 190.89
  Q 214.91 159.46 208.95 124.10
  Q 208.46 121.21 207.71 118.38
  Q 207.36 117.05 207.18 118.42
  C 206.95 120.20 207.65 121.90 207.88 123.68
  Q 210.35 142.28 214.47 165.71
  Q 219.13 192.20 227.65 216.90
  Q 232.10 229.80 239.07 241.41"
/>
<path stroke="#e9b10e" vector-effect="non-scaling-stroke" d="
  M 239.07 241.41
  Q 238.87 241.47 238.67 241.54"
/>
<path stroke="#dea50e" vector-effect="non-scaling-stroke" d="
  M 238.67 241.54
  C 231.84 231.64 226.24 220.79 221.36 209.88"
/>
<path stroke="#e9b10e" vector-effect="non-scaling-stroke" d="
  M 221.36 209.88
  C 208.29 177.93 200.88 144.09 196.93 109.98
  A 1.51 1.50 71.3 0 1 197.66 108.50
  Q 204.57 104.36 211.96 101.46
  Q 221.40 97.74 231.13 94.73
  Q 231.18 94.71 243.41 91.25
  Q 250.42 89.27 257.28 86.72"
/>
<path stroke="#d5a10f" vector-effect="non-scaling-stroke" d="
  M 266.22 85.15
  L 279.87 82.48
  Q 280.62 82.33 279.86 82.32
  Q 273.01 82.24 265.97 83.24"
/>
<path stroke="#e9b10e" vector-effect="non-scaling-stroke" d="
  M 265.97 83.24
  C 258.51 83.35 250.97 83.12 243.70 83.83
  Q 234.40 84.75 225.12 85.85
  Q 210.58 87.58 195.96 90.83
  A 0.89 0.89 0.0 0 1 194.88 90.04
  L 194.04 80.53"
/>
<path stroke="#ffee7c" vector-effect="non-scaling-stroke" d="
  M 214.78 75.59
  Q 210.98 77.40 206.94 78.45
  C 204.43 79.10 202.66 80.19 200.72 81.62
  A 1.12 1.12 0.0 0 0 201.10 83.60
  Q 203.14 84.14 205.12 84.10
  Q 215.33 83.93 226.08 83.39
  Q 228.43 83.27 230.86 82.60
  Q 232.75 82.07 234.75 82.13
  Q 242.60 82.36 250.22 81.34
  C 252.60 81.02 254.96 81.39 257.24 80.76
  Q 259.79 80.06 262.36 80.13
  Q 266.14 80.25 269.50 79.82
  Q 273.25 79.35 276.55 79.14
  Q 285.78 78.54 294.80 77.60
  Q 294.88 77.59 301.71 77.13
  Q 305.10 76.91 309.25 76.16
  Q 315.24 75.09 323.10 75.18
  Q 325.48 75.21 328.25 74.47
  Q 330.62 73.83 333.48 73.54
  Q 336.89 73.20 338.72 72.76
  Q 341.31 72.13 343.86 71.44
  A 0.63 0.63 0.0 0 0 344.26 70.54
  Q 344.07 70.18 343.68 70.06
  Q 339.28 68.68 334.75 68.26
  Q 325.72 67.41 316.16 67.61
  Q 315.77 67.62 315.41 67.47
  Q 315.22 67.39 315.00 67.39
  Q 301.66 67.34 287.56 67.41
  C 282.95 67.43 276.78 68.15 271.31 67.88"
/>
<path stroke="#d4ac71" vector-effect="non-scaling-stroke" d="
  M 243.04 70.91
  Q 244.43 71.01 245.47 70.62"
/>
<path stroke="#bf6f03" vector-effect="non-scaling-stroke" d="
  M 265.97 83.24
  L 262.03 83.81"
/>
<path stroke="#c87302" vector-effect="non-scaling-stroke" d="
  M 221.36 209.88
  Q 218.24 209.36 215.12 207.90
  C 214.45 207.59 213.67 206.78 212.70 206.64
  Q 212.20 206.57 211.82 206.23
  Q 210.83 205.36 209.49 204.95
  Q 209.02 204.81 209.05 204.32
  Q 209.10 203.29 208.17 203.17"
/>
<path stroke="#e9b10e" vector-effect="non-scaling-stroke" d="
  M 434.19 81.15
  L 433.00 95.05"
/>
<path stroke="#e9b10e" vector-effect="non-scaling-stroke" d="
  M 432.39 106.90
  Q 431.41 114.81 430.51 122.50
  Q 425.08 168.73 410.80 213.00
  Q 405.07 230.76 394.58 250.44"
/>
<path stroke="#c87302" vector-effect="non-scaling-stroke" d="
  M 394.58 250.44
  L 392.40 250.36
  Q 391.85 250.34 392.11 249.86
  Q 392.27 249.55 391.97 249.33
  A 4.02 3.32 54.7 0 0 389.20 248.58
  Q 388.20 248.74 387.22 248.13
  A 1.66 1.64 -29.1 0 0 386.25 247.86
  Q 383.76 247.94 381.37 247.56
  Q 377.95 247.01 376.52 246.95
  Q 369.89 246.66 361.49 246.43
  Q 360.93 246.42 360.46 246.12
  Q 359.26 245.33 357.96 245.78
  Q 357.13 246.08 356.91 245.18
  Q 356.81 244.78 356.54 245.09
  A 2.07 1.51 85.4 0 0 356.24 245.58
  Q 355.87 246.41 354.51 246.06"
/>
<path stroke="#c87302" vector-effect="non-scaling-stroke" d="
  M 238.67 241.54
  Q 238.99 242.68 239.81 243.23
  Q 240.35 243.59 240.19 242.96
  Q 239.98 242.15 239.07 241.41"
/>
<path stroke="#dea50e" vector-effect="non-scaling-stroke" d="
  M 393.65 253.33
  Q 392.54 253.42 394.58 250.44"
/>
<path stroke="#817d70" vector-effect="non-scaling-stroke" d="
  M 165.45 127.16
  Q 158.91 126.29 152.42 126.63
  Q 141.25 127.21 140.61 127.22
  Q 131.33 127.33 122.75 127.78
  C 113.61 128.26 103.94 128.31 94.76 128.86
  C 88.78 129.22 80.24 129.31 72.74 130.07"
/>
<path stroke="#82720e" vector-effect="non-scaling-stroke" d="
  M 72.74 130.07
  Q 72.97 130.06 73.20 130.06"
/>
<path stroke="#6c4002" vector-effect="non-scaling-stroke" d="
  M 73.20 130.06
  L 67.58 130.48
  Q 67.05 130.52 67.07 131.05
  Q 67.35 138.30 68.57 144.77
  Q 79.63 203.70 127.45 238.46
  Q 153.89 257.67 189.04 269.30
  C 190.81 269.89 191.50 268.32 192.83 267.59
  Q 195.31 266.23 198.01 265.11"
/>
<path stroke="#82720e" vector-effect="non-scaling-stroke" d="
  M 198.01 265.11
  L 200.88 264.43
  Q 201.50 264.28 201.11 264.79
  L 198.92 267.66"
/>
<path stroke="#573003" vector-effect="non-scaling-stroke" d="
  M 198.92 267.66
  C 191.32 278.37 196.28 292.91 208.01 298.08
  C 217.32 302.19 227.70 298.93 233.61 290.69
  C 240.14 281.57 237.92 269.40 229.42 262.35
  Q 224.77 258.48 219.14 256.53"
/>
<path stroke="#6c4002" vector-effect="non-scaling-stroke" d="
  M 219.14 256.53
  C 208.89 253.87 197.49 251.67 188.41 248.71
  C 158.67 239.04 132.43 222.77 112.27 198.80
  Q 111.06 197.36 112.52 198.55
  Q 123.91 207.88 137.26 214.75
  Q 137.41 214.82 137.53 214.94
  Q 137.74 215.15 137.90 214.76
  A 0.38 0.37 -60.3 0 0 137.79 214.33
  Q 113.05 193.97 102.77 165.23"
/>
<path stroke="#613402" vector-effect="non-scaling-stroke" d="
  M 102.77 165.23
  Q 102.80 162.70 101.61 161.64
  Q 93.51 154.40 85.30 147.20
  Q 84.82 146.79 85.45 146.79
  L 159.16 146.96
  Q 159.30 146.96 159.30 146.81
  L 159.29 146.55
  A 0.57 0.57 0.0 0 0 158.79 146.00
  L 115.49 140.70
  A 0.12 0.12 0.0 0 1 115.50 140.47
  L 178.00 139.42
  Q 178.54 139.41 178.61 138.88
  Q 179.84 130.28 173.27 126.53"
/>
<path stroke="#82720e" vector-effect="non-scaling-stroke" d="
  M 173.27 126.53
  Q 167.31 125.53 165.45 127.16"
/>
<path stroke="#dea50e" vector-effect="non-scaling-stroke" d="
  M 173.27 126.53
  L 174.86 132.03
  A 0.98 0.97 -9.1 0 1 173.96 133.27
  L 91.97 136.38"
/>
<path stroke="#ffee7c" vector-effect="non-scaling-stroke" d="
  M 91.97 136.38
  Q 93.80 135.88 95.50 135.38
  Q 97.31 134.84 99.05 134.64
  Q 107.91 133.59 116.78 132.64
  Q 140.95 130.04 165.45 127.16"
/>
<path stroke="#deb070" vector-effect="non-scaling-stroke" d="
  M 91.97 136.38
  L 82.08 136.88"
/>
<path stroke="#ffee7c" vector-effect="non-scaling-stroke" d="
  M 82.08 136.88
  L 72.74 130.07"
/>
<path stroke="#c87302" vector-effect="non-scaling-stroke" d="
  M 102.77 165.23
  Q 100.31 164.28 98.51 167.25
  Q 97.15 169.50 96.23 170.44
  Q 95.88 170.79 95.69 171.24
  Q 95.20 172.37 94.45 173.35
  Q 94.11 173.78 93.93 174.30
  Q 93.79 174.69 93.88 175.08
  Q 94.06 175.88 93.32 175.54
  Q 92.92 175.35 92.55 175.31"
/>
<path stroke="#dea50e" vector-effect="non-scaling-stroke" d="
  M 92.55 175.31
  Q 84.02 156.93 82.08 136.88"
/>
<path stroke="#e9b10e" vector-effect="non-scaling-stroke" d="
  M 92.55 175.31
  Q 101.99 195.23 113.55 208.20
  Q 132.45 229.38 162.42 243.98
  Q 183.82 254.41 208.10 259.99
  A 2.81 2.71 44.0 0 0 209.37 259.99
  Q 214.77 258.75 220.31 259.44"
/>
<path stroke="#d5a10f" vector-effect="non-scaling-stroke" d="
  M 220.31 259.44
  Q 225.40 261.15 229.23 265.29
  A 1.82 1.77 26.9 0 1 229.70 266.66
  L 229.67 266.99
  Q 229.61 267.75 229.04 267.23
  Q 223.01 261.74 215.26 261.81
  C 213.40 261.83 211.66 262.65 209.93 263.27
  Q 209.80 263.32 209.73 263.43
  Q 209.64 263.57 209.64 263.69
  Q 209.63 263.98 209.91 264.01
  Q 210.27 264.04 210.50 264.14"
/>
<path stroke="#ffee7c" vector-effect="non-scaling-stroke" d="
  M 210.50 264.14
  Q 205.46 264.18 202.92 268.95
  Q 200.63 273.26 201.57 277.03"
/>
<path stroke="#d5a10f" vector-effect="non-scaling-stroke" d="
  M 201.57 277.03
  Q 200.85 280.94 201.66 279.68"
/>
<path stroke="#82720e" vector-effect="non-scaling-stroke" d="
  M 201.66 279.68
  Q 202.02 288.33 208.81 292.11"
/>
<path stroke="#d5a10f" vector-effect="non-scaling-stroke" d="
  M 208.81 292.11
  Q 208.64 293.87 205.88 292.08
  Q 197.25 286.48 197.31 276.52
  Q 197.32 274.78 197.95 272.06
  Q 198.44 269.92 198.92 267.66"
/>
<path stroke="#bf6f03" vector-effect="non-scaling-stroke" d="
  M 219.14 256.53
  Q 219.68 258.82 220.31 259.44"
/>
<path stroke="#ffee7c" vector-effect="non-scaling-stroke" d="
  M 211.92 264.57
  Q 212.72 264.88 213.26 265.35
  Q 213.65 265.69 213.58 266.20
  C 213.07 270.41 208.00 271.92 206.34 275.83
  Q 205.96 276.75 206.06 278.72
  Q 206.15 280.63 205.41 281.69"
/>
<path stroke="#e9b10e" vector-effect="non-scaling-stroke" d="
  M 73.20 130.06
  Q 73.23 132.13 73.22 134.21
  Q 73.21 136.44 73.47 138.33
  Q 81.71 197.46 128.92 232.85
  Q 159.47 255.74 198.01 265.11"
/>
<path stroke="#573003" vector-effect="non-scaling-stroke" d="
  M 208.81 292.11
  Q 217.53 296.02 224.19 292.29
  C 231.93 287.97 234.30 278.60 229.97 270.87
  C 227.99 267.34 223.67 264.66 219.83 264.07
  Q 218.46 263.86 219.63 264.61
  C 233.09 273.23 220.40 293.93 206.08 284.85
  Q 203.63 283.30 201.66 279.68"
/>
<path stroke="#d4ac71" vector-effect="non-scaling-stroke" d="
  M 201.57 277.03
  Q 202.72 280.03 205.41 281.69"
/>
<path stroke="#d5a10f" vector-effect="non-scaling-stroke" d="
  M 205.41 281.69
  Q 212.20 285.82 217.38 282.10
  C 223.24 277.90 223.11 270.37 217.19 266.08
  Q 214.84 264.38 211.92 264.57"
/>
<path stroke="#d4ac71" vector-effect="non-scaling-stroke" d="
  M 211.92 264.57
  L 210.50 264.14"
/>
<path stroke="#6c4002" vector-effect="non-scaling-stroke" d="
  M 531.96 146.64
  L 539.99 146.78
  Q 541.14 146.80 540.28 147.57
  L 524.57 161.49
  A 2.96 2.93 -14.0 0 0 523.66 162.99
  Q 522.30 168.39 519.95 173.61
  Q 509.48 196.95 488.42 214.26
  A 0.23 0.23 0.0 0 0 488.33 214.42
  Q 488.25 214.99 488.74 214.74
  Q 502.34 207.85 513.76 198.31
  Q 514.51 197.69 513.91 198.45
  Q 512.15 200.70 510.31 202.75
  Q 488.48 227.01 457.89 240.79
  Q 443.57 247.25 432.40 250.24
  Q 421.88 253.06 411.67 255.28
  Q 404.26 256.89 398.16 261.19
  C 385.30 270.26 385.41 288.17 398.82 296.69
  Q 409.17 303.27 421.49 296.32"
/>
<path stroke="#82720e" vector-effect="non-scaling-stroke" d="
  M 421.49 296.32
  Q 426.23 292.71 428.18 288.65
  Q 434.39 275.72 425.15 264.76
  Q 424.79 264.33 425.34 264.24
  Q 425.91 264.14 426.73 264.35"
/>
<path stroke="#6c4002" vector-effect="non-scaling-stroke" d="
  M 426.73 264.35
  Q 431.56 266.14 435.43 269.28
  Q 435.83 269.61 436.32 269.45
  Q 473.20 257.58 501.24 236.46
  Q 542.45 205.43 555.42 154.38
  Q 557.98 144.29 558.80 134.01
  Q 558.92 132.54 558.85 131.03
  Q 558.82 130.48 558.27 130.45
  L 553.14 130.18"
/>
<path stroke="#817d70" vector-effect="non-scaling-stroke" d="
  M 553.14 130.18
  Q 550.61 129.69 548.00 129.56
  Q 521.84 128.24 494.60 127.73"
/>
<path stroke="#82720e" vector-effect="non-scaling-stroke" d="
  M 494.60 127.73
  L 470.95 127.14"
/>
<path stroke="#573003" vector-effect="non-scaling-stroke" d="
  M 470.95 127.14
  Q 463.04 126.10 454.87 126.18
  C 449.01 126.23 446.80 133.66 447.27 138.46
  Q 447.36 139.38 448.29 139.40
  L 511.17 140.40
  Q 511.77 140.41 511.18 140.54
  C 510.51 140.69 509.89 140.60 509.20 140.71
  Q 488.41 143.89 467.50 146.11
  Q 467.19 146.14 467.21 146.46
  L 467.22 146.71
  Q 467.23 146.88 467.40 146.87
  L 531.96 146.64"
/>
<path stroke="#d5a10f" vector-effect="non-scaling-stroke" d="
  M 470.95 127.14
  Q 467.80 129.21 467.90 133.03
  A 0.79 0.78 0.4 0 0 468.66 133.79
  L 531.82 136.46"
/>
<path stroke="#bf6f03" vector-effect="non-scaling-stroke" d="
  M 531.82 136.46
  Q 532.52 140.55 529.94 143.17
  Q 529.55 143.57 529.46 144.12
  Q 529.37 144.63 529.01 145.02
  Q 528.88 145.17 529.07 145.25
  Q 529.21 145.31 529.35 145.30
  Q 530.34 145.23 529.54 145.81
  Q 529.40 145.92 529.33 146.09
  Q 529.12 146.56 529.64 146.57
  L 531.96 146.64"
/>
<path stroke="#ffee7c" vector-effect="non-scaling-stroke" d="
  M 494.60 127.73
  Q 511.24 131.80 527.46 134.23
  Q 529.39 134.52 531.31 134.78
  Q 532.48 134.95 535.06 135.71
  Q 537.50 136.43 540.23 136.40"
/>
<path stroke="#e9b10e" vector-effect="non-scaling-stroke" d="
  M 540.23 136.40
  L 531.82 136.46"
/>
<path stroke="#e9bc70" vector-effect="non-scaling-stroke" d="
  M 553.14 130.18
  Q 552.92 131.26 553.09 131.46"
/>
<path stroke="#ffee7c" vector-effect="non-scaling-stroke" d="
  M 553.09 131.46
  Q 551.76 131.75 551.15 132.20
  Q 548.06 134.46 544.97 136.83"
/>
<path stroke="#e9bc70" vector-effect="non-scaling-stroke" d="
  M 544.97 136.83
  L 540.23 136.40"
/>
<path stroke="#e9b10e" vector-effect="non-scaling-stroke" d="
  M 421.49 296.32
  L 421.33 295.65
  Q 421.20 295.10 421.61 294.70
  Q 429.67 286.86 427.19 274.58
  Q 425.20 264.75 415.48 261.11
  Q 414.52 260.75 415.53 260.56
  C 420.20 259.70 424.98 258.86 429.47 257.55
  Q 468.20 246.29 496.80 223.40
  C 523.44 202.08 542.47 171.01 544.97 136.83"
/>
<path stroke="#e9b10e" vector-effect="non-scaling-stroke" d="
  M 426.73 264.35
  C 429.91 263.96 433.45 264.87 436.42 263.87
  Q 455.29 257.50 475.86 246.49
  Q 494.17 236.70 512.03 219.58
  Q 526.54 205.68 536.86 187.35
  Q 551.54 161.29 553.09 131.46"
/>
<path stroke="#817d70" vector-effect="non-scaling-stroke" d="
  M 301.61 376.77
  L 313.10 376.86"
/>
<path stroke="#82720e" vector-effect="non-scaling-stroke" d="
  M 313.10 376.86
  L 321.98 376.93"
/>
<path stroke="#573003" vector-effect="non-scaling-stroke" d="
  M 321.98 376.93
  L 334.43 376.92
  Q 336.96 376.92 336.40 374.45
  Q 332.34 356.44 328.65 339.67
  Q 327.37 333.83 322.04 332.34
  Q 319.52 331.64 322.10 331.25
  C 333.06 329.62 345.99 325.17 351.71 315.13
  A 0.35 0.35 0.0 0 0 351.35 314.61
  Q 312.57 320.34 274.68 314.56
  A 0.39 0.39 0.0 0 0 274.28 315.14
  C 280.37 326.02 294.34 329.58 305.85 331.75
  Q 307.16 332.00 305.83 332.07
  C 299.99 332.40 297.84 336.64 296.76 341.87
  Q 293.38 358.26 289.44 374.89
  A 1.61 1.61 0.0 0 0 291.04 376.87
  L 299.23 376.71"
/>
<path stroke="#d5a10f" vector-effect="non-scaling-stroke" d="
  M 321.98 376.93
  Q 320.34 363.13 318.31 349.47
  C 317.73 345.56 318.03 339.26 312.73 338.56
  Q 306.47 337.74 305.01 343.75
  Q 303.29 350.81 302.53 357.85"
/>
<path stroke="#ffee7c" vector-effect="non-scaling-stroke" d="
  M 313.10 376.86
  Q 307.23 374.89 304.11 368.97"
/>
<path stroke="#573003" vector-effect="non-scaling-stroke" d="
  M 262.24 391.19
  Q 258.12 390.90 256.07 395.07
  Q 254.14 399.00 252.43 403.23
  A 2.05 2.04 11.0 0 0 254.33 406.04
  L 371.51 406.06
  A 2.14 2.13 -10.8 0 0 373.50 403.14
  Q 371.72 398.62 369.58 394.44
  Q 367.64 390.65 363.12 391.02"
/>
<path stroke="#82720e" vector-effect="non-scaling-stroke" d="
  M 363.12 391.02
  L 331.46 391.09"
/>
<path stroke="#817d70" vector-effect="non-scaling-stroke" d="
  M 331.46 391.09
  L 262.24 391.19"
/>
<path stroke="#ffee7c" vector-effect="non-scaling-stroke" d="
  M 331.46 391.09
  Q 331.42 391.60 331.20 391.96
  Q 331.00 392.27 330.64 392.30
  Q 313.26 393.53 296.09 394.03
  Q 289.87 394.22 281.88 395.16
  Q 273.92 396.10 265.85 395.73
  Q 265.40 395.71 265.13 395.36
  L 262.49 391.92"
/>
<path stroke="#d4ac71" vector-effect="non-scaling-stroke" d="
  M 262.49 391.92
  Q 262.25 391.79 262.24 391.19"
/>
<path stroke="#d5a10f" vector-effect="non-scaling-stroke" d="
  M 363.12 391.02
  Q 366.18 394.57 368.22 400.00"
/>
<path stroke="#e9b10e" vector-effect="non-scaling-stroke" d="
  M 368.22 400.00
  Q 368.49 400.46 368.23 400.78
  Q 367.91 401.19 367.47 400.91
  L 366.18 400.08"
/>
<path stroke="#dea50e" vector-effect="non-scaling-stroke" d="
  M 366.18 400.08
  C 363.41 397.47 360.84 396.04 356.77 396.05
  Q 329.75 396.14 302.75 396.40
  Q 284.50 396.58 268.90 396.47
  Q 265.62 396.45 263.76 397.37
  Q 261.49 398.49 259.46 400.60"
/>
<path stroke="#e9b10e" vector-effect="non-scaling-stroke" d="
  M 259.46 400.60
  L 257.58 402.47
  A 0.32 0.32 0.0 0 1 257.04 402.29
  L 256.95 401.67"
/>
<path stroke="#d5a10f" vector-effect="non-scaling-stroke" d="
  M 256.95 401.67
  Q 258.99 397.37 261.01 393.00
  Q 261.30 392.37 262.49 391.92"
/>
<path stroke="#bf6f03" vector-effect="non-scaling-stroke" d="
  M 256.95 401.67
  Q 256.61 401.83 256.55 402.21
  A 0.72 0.71 -73.8 0 0 256.96 402.97
  C 258.89 403.84 260.84 403.13 262.85 403.13
  Q 275.35 403.10 287.95 403.15
  Q 288.25 403.15 288.53 403.26
  Q 288.74 403.34 288.97 403.34
  Q 328.27 403.42 367.98 403.34
  A 1.20 1.17 24.3 0 0 368.75 403.06
  Q 370.29 401.79 368.22 400.00"
/>
<path stroke="#c87302" vector-effect="non-scaling-stroke" d="
  M 366.18 400.08
  Q 366.18 400.33 366.08 400.62
  Q 365.91 401.11 365.40 401.11
  C 345.66 401.23 325.96 400.77 306.17 400.91
  C 303.84 400.93 300.45 401.27 297.49 401.12
  Q 292.94 400.88 291.00 400.94
  Q 275.45 401.46 259.46 400.60"
/>
<path stroke="#6c4002" vector-effect="non-scaling-stroke" d="
  M 402.77 431.54
  Q 400.25 425.17 398.94 422.76
  Q 396.01 417.40 389.60 418.60"
/>
<path stroke="#82720e" vector-effect="non-scaling-stroke" d="
  M 389.60 418.60
  L 355.61 418.55"
/>
<path stroke="#817d70" vector-effect="non-scaling-stroke" d="
  M 355.61 418.55
  L 236.96 418.54"
/>
<path stroke="#573003" vector-effect="non-scaling-stroke" d="
  M 236.96 418.54
  C 234.90 418.52 232.58 418.19 230.75 419.01
  Q 228.36 420.08 227.19 422.42
  Q 224.54 427.72 221.82 434.48
  C 220.99 436.56 222.39 438.91 224.64 438.92
  Q 317.48 439.03 398.89 438.89
  Q 400.38 438.89 402.30 438.64
  A 2.52 2.52 0.0 0 0 404.46 435.71
  Q 404.11 433.73 402.77 431.54"
/>
<path stroke="#d4ac71" vector-effect="non-scaling-stroke" d="
  M 236.96 418.54
  L 235.84 418.85"
/>
<path stroke="#bf6f03" vector-effect="non-scaling-stroke" d="
  M 235.84 418.85
  Q 233.05 423.33 230.78 428.48
  C 230.15 429.92 228.74 430.95 229.71 432.77
  A 1.67 1.66 -16.2 0 0 231.30 433.64
  Q 236.54 433.26 242.25 433.56
  Q 247.65 433.83 252.85 433.85
  Q 302.72 434.04 351.05 433.99
  Q 369.10 433.97 388.58 433.55
  C 390.84 433.51 393.00 434.02 395.32 433.86
  Q 397.85 433.70 397.62 431.28
  Q 397.58 430.80 398.05 430.79
  Q 399.80 430.75 401.16 431.97
  A 1.58 1.50 53.6 0 0 402.79 432.26
  Q 403.09 432.13 402.77 431.54"
/>
<path stroke="#c87302" vector-effect="non-scaling-stroke" d="
  M 284.71 424.61
  L 240.54 424.89
  Q 238.85 424.90 237.44 425.83
  Q 235.15 427.34 233.15 428.94
  Q 231.63 430.16 233.58 430.16
  Q 309.49 430.08 382.36 430.36
  Q 382.54 430.36 387.09 430.76
  Q 390.80 431.08 393.60 429.31"
/>
<path stroke="#ffee7c" vector-effect="non-scaling-stroke" d="
  M 355.61 418.55
  Q 353.94 420.08 349.25 419.89
  Q 341.73 419.59 311.24 421.15
  Q 296.85 421.89 282.22 422.06
  Q 275.62 422.13 270.75 422.64
  Q 256.55 424.10 247.04 424.20"
/>
<path stroke="#e9bc70" vector-effect="non-scaling-stroke" d="
  M 247.04 424.20
  L 239.50 424.33
  Q 238.99 424.34 238.67 423.95
  Q 236.70 421.56 235.84 418.85"
/>
<path stroke="#e9b10e" vector-effect="non-scaling-stroke" d="
  M 389.60 418.60
  Q 393.21 423.51 395.54 429.58
  Q 396.34 431.66 394.57 430.31
  Q 394.00 429.87 393.60 429.31"
/>
<path stroke="#dea50e" vector-effect="non-scaling-stroke" d="
  M 393.60 429.31
  L 388.48 425.43
  A 3.83 3.82 -26.2 0 0 386.15 424.64
  L 284.71 424.61"
/>
<path stroke="#e9b10e" vector-effect="non-scaling-stroke" d="
  M 284.71 424.61
  L 247.04 424.20"
/>
<path stroke="#6c4002" vector-effect="non-scaling-stroke" d="
  M 424.35 279.32
  C 420.70 287.51 410.98 289.74 404.38 283.50
  C 398.12 277.58 400.22 267.98 407.51 263.86
  Q 408.18 263.49 407.42 263.58
  C 392.95 265.38 388.85 284.21 401.17 291.83
  Q 406.44 295.09 412.07 293.76
  Q 423.43 291.07 424.48 279.19
  Q 424.48 279.13 424.46 279.07
  Q 424.43 279.01 424.39 279.07
  Q 424.36 279.11 424.36 279.16
  Q 424.36 279.19 424.37 279.22
  Q 424.37 279.27 424.35 279.32"
/>
<path stroke="#e9b10e" vector-effect="non-scaling-stroke" d="
  M 414.26 265.22
  A 8.82 8.81 4.7 0 0 405.77 272.42
  A 8.84 8.84 0.0 0 0 408.72 280.77
  A 8.85 8.83 -36.7 0 0 418.04 282.11"
/>
<path stroke="#e9bc70" vector-effect="non-scaling-stroke" d="
  M 418.04 282.11
  A 8.83 8.82 82.8 0 0 423.16 275.49
  A 8.84 8.84 0.0 0 0 419.90 267.10
  A 8.86 8.80 63.3 0 0 414.26 265.22"
/>
<path stroke="#ffee7c" vector-effect="non-scaling-stroke" d="
  M 418.04 282.11
  Q 417.41 281.73 417.34 281.00
  Q 416.55 273.18 414.26 265.22"
/>
<path stroke="#d5a10f" vector-effect="non-scaling-stroke" d="
  M 297.77 324.23
  Q 313.13 330.89 326.70 323.99
  Q 329.22 322.70 326.39 322.71
  Q 311.11 322.72 294.33 321.74
  Q 293.22 321.67 294.15 322.28
  Q 295.94 323.44 297.77 324.23"
/>
</g>
<path fill="#040102" d="
  M 463.60 106.93
  C 471.86 107.58 480.02 107.84 488.21 108.52
  Q 492.16 108.84 496.16 108.97
  Q 500.75 109.12 505.58 109.61
  Q 508.66 109.92 511.90 109.94
  C 516.78 109.98 521.40 110.74 526.40 110.86
  Q 531.61 110.98 537.20 111.52
  C 541.86 111.97 546.55 111.89 551.29 112.43
  Q 555.91 112.95 560.56 112.95
  C 564.69 112.96 568.94 113.74 573.13 113.86
  Q 576.30 113.95 576.83 116.71
  Q 577.32 119.19 576.82 122.19
  Q 576.38 124.82 576.24 127.51
  Q 576.10 130.09 575.71 133.21
  Q 573.04 154.17 566.57 173.25
  Q 556.14 204.00 534.97 227.39
  Q 520.18 243.73 499.33 257.09
  Q 472.70 274.15 441.68 282.58
  A 0.99 0.97 -11.5 0 0 440.96 283.65
  C 441.37 286.74 442.06 289.77 441.69 292.79
  Q 439.26 313.03 419.62 319.65
  C 413.67 321.65 405.71 321.79 399.60 320.09
  Q 386.99 316.58 379.83 304.50
  Q 379.24 303.50 378.43 304.34
  Q 374.52 308.39 370.19 311.55
  Q 369.63 311.97 369.50 312.65
  Q 367.40 324.03 358.97 331.42
  Q 353.98 335.80 346.84 339.15
  A 1.16 1.16 0.0 0 0 346.20 340.48
  L 354.94 376.22
  Q 355.12 376.95 355.87 376.97
  Q 361.78 377.11 368.85 376.94
  C 375.06 376.79 380.35 378.80 383.43 384.08
  Q 386.28 388.97 395.51 407.28
  Q 395.77 407.80 396.36 407.82
  Q 398.76 407.88 401.24 407.77
  Q 410.65 407.37 414.76 415.25
  Q 424.11 433.22 434.01 452.58
  A 3.28 3.27 -15.3 0 1 431.29 457.34
  Q 427.82 457.54 424.50 457.53
  Q 312.57 457.44 195.25 457.45
  C 192.59 457.45 190.81 455.20 192.11 452.58
  Q 203.25 430.13 211.52 414.74
  C 214.26 409.64 219.13 407.53 224.71 407.80
  Q 227.25 407.92 229.61 407.83
  A 1.00 0.99 13.1 0 0 230.45 407.31
  C 234.57 399.47 238.45 391.12 243.13 383.35
  C 245.90 378.74 251.24 376.82 256.90 376.95
  Q 263.87 377.11 270.21 376.97
  A 0.93 0.93 0.0 0 0 271.09 376.26
  L 279.91 340.27
  Q 280.08 339.58 279.43 339.27
  Q 272.11 335.81 267.08 331.40
  Q 258.86 324.19 256.59 312.99
  Q 256.46 312.35 255.97 311.91
  L 247.38 304.27
  A 0.80 0.80 0.0 0 0 246.16 304.47
  Q 237.93 318.61 222.28 320.89
  Q 216.53 321.73 211.03 320.77
  Q 205.45 319.80 200.75 317.33
  Q 186.26 309.72 184.28 292.58
  C 183.94 289.64 184.69 286.58 185.06 283.60
  A 0.89 0.88 -79.0 0 0 184.42 282.64
  Q 175.11 280.05 165.71 276.57
  Q 134.04 264.86 107.82 243.32
  Q 85.59 225.07 72.15 201.39
  Q 58.48 177.31 52.93 148.87
  C 52.66 147.47 52.10 145.91 52.04 144.58
  C 51.92 142.13 51.01 139.96 50.94 137.56
  C 50.86 135.08 50.05 132.91 49.93 130.48
  C 49.79 127.44 49.61 124.44 49.15 121.44
  Q 48.81 119.25 49.04 117.01
  C 49.24 115.09 51.05 113.73 52.97 113.75
  Q 56.17 113.78 59.18 113.36
  C 63.93 112.69 68.96 112.93 73.62 112.47
  Q 78.40 111.99 82.98 111.88
  C 87.30 111.79 91.46 111.14 95.60 111.03
  C 101.60 110.88 107.35 110.21 113.21 109.97
  Q 117.85 109.78 121.77 109.46
  Q 126.82 109.03 131.76 108.89
  Q 135.06 108.80 138.42 108.49
  C 146.40 107.76 154.41 107.56 162.41 106.92
  Q 163.00 106.88 163.00 106.29
  Q 163.01 102.67 162.47 98.95
  C 161.87 94.77 161.90 90.94 161.44 86.89
  C 160.90 82.05 160.77 77.18 160.78 72.29
  C 160.78 70.22 161.81 68.29 163.73 67.34
  Q 169.90 64.28 176.05 62.30
  Q 196.88 55.58 217.08 51.96
  Q 218.38 51.73 219.44 51.40
  Q 220.58 51.04 221.70 50.99
  C 224.25 50.86 226.40 50.03 228.90 49.91
  C 230.75 49.82 232.19 48.98 233.95 48.97
  C 236.73 48.94 239.20 47.99 241.95 47.93
  C 244.05 47.88 245.92 47.12 247.94 47.05
  C 251.88 46.90 255.59 45.99 259.47 45.94
  C 262.20 45.90 264.56 45.20 267.19 45.06
  C 270.79 44.86 274.76 45.11 278.27 44.39
  Q 279.77 44.08 281.31 44.05
  Q 311.06 43.41 341.55 43.96
  Q 345.49 44.04 349.30 44.52
  C 353.49 45.05 357.79 44.61 361.89 45.42
  Q 364.69 45.98 367.58 45.99
  C 370.75 46.01 373.76 46.91 376.98 46.95
  C 379.51 46.99 381.87 47.82 384.45 47.94
  Q 386.24 48.03 387.95 48.46
  C 390.09 49.01 392.34 48.75 394.43 49.44
  C 396.46 50.12 398.47 49.85 400.51 50.46
  C 402.03 50.91 403.76 50.93 405.39 51.25
  Q 412.80 52.68 420.01 54.26
  Q 434.66 57.45 448.76 61.97
  Q 456.36 64.41 462.67 67.67
  C 466.45 69.62 465.18 76.13 465.07 79.54
  C 464.94 83.53 464.28 88.08 464.11 92.38
  Q 463.97 95.92 463.43 99.60
  Q 462.95 102.92 462.99 106.28
  Q 463.00 106.88 463.60 106.93
  Z
  M 268.56 68.18
  L 245.47 70.62
  Q 243.93 70.34 243.04 70.91
  L 214.78 75.59
  Q 204.07 77.34 194.04 80.53
  L 184.33 84.22
  Q 183.78 84.43 183.82 85.01
  L 184.76 97.62
  Q 184.79 98.05 185.19 97.90
  Q 196.93 93.40 210.76 90.67
  Q 224.01 88.06 239.52 86.36
  Q 250.80 85.12 262.03 83.81
  L 266.12 83.87
  A 0.50 0.49 -85.4 0 1 266.60 84.44
  Q 266.55 84.74 266.22 85.15
  L 257.28 86.72
  Q 255.18 86.66 253.00 87.04
  Q 238.49 89.64 223.48 94.13
  C 209.17 98.41 196.73 103.78 187.06 111.79
  Q 186.57 112.20 186.65 112.83
  Q 191.83 153.59 204.52 192.74
  Q 206.25 198.07 208.17 203.17
  Q 217.70 230.32 233.18 254.32
  C 243.45 270.24 256.89 284.99 272.90 294.42
  Q 275.85 296.16 273.56 293.61
  Q 267.69 287.05 263.15 277.91
  Q 262.76 277.11 263.37 277.76
  Q 275.20 290.40 292.94 295.15
  C 316.90 301.56 345.22 296.61 362.56 277.74
  Q 363.21 277.03 362.79 277.89
  Q 358.31 287.25 352.06 293.93
  Q 351.68 294.34 351.61 294.89
  Q 351.54 295.43 352.00 295.15
  C 369.40 284.63 382.30 270.45 393.65 253.33
  C 411.71 224.40 423.13 192.52 430.96 159.05
  Q 436.37 135.96 439.37 112.70
  Q 439.43 112.20 439.03 111.90
  L 432.39 106.90
  C 420.90 99.96 408.06 95.43 394.99 92.01
  C 383.96 89.12 372.47 86.35 361.11 84.76
  Q 358.03 84.32 361.13 84.09
  C 364.48 83.85 367.93 84.64 371.33 84.86
  Q 384.80 85.71 401.50 88.23
  Q 417.90 90.70 433.00 95.05
  L 440.82 97.94
  A 0.31 0.31 0.0 0 0 441.24 97.67
  L 442.17 84.79
  A 0.56 0.56 0.0 0 0 441.82 84.24
  L 434.19 81.15
  Q 417.93 76.29 400.80 73.58
  Q 349.11 64.77 296.81 66.15
  Q 290.61 65.86 286.25 66.14
  C 285.01 66.23 283.90 66.98 282.55 66.93
  Q 275.44 66.66 268.56 68.18
  Z
  M 165.45 127.16
  Q 158.91 126.29 152.42 126.63
  Q 141.25 127.21 140.61 127.22
  Q 131.33 127.33 122.75 127.78
  C 113.61 128.26 103.94 128.31 94.76 128.86
  C 88.78 129.22 80.24 129.31 72.74 130.07
  Q 72.97 130.06 73.20 130.06
  L 67.58 130.48
  Q 67.05 130.52 67.07 131.05
  Q 67.35 138.30 68.57 144.77
  Q 79.63 203.70 127.45 238.46
  Q 153.89 257.67 189.04 269.30
  C 190.81 269.89 191.50 268.32 192.83 267.59
  Q 195.31 266.23 198.01 265.11
  L 200.88 264.43
  Q 201.50 264.28 201.11 264.79
  L 198.92 267.66
  C 191.32 278.37 196.28 292.91 208.01 298.08
  C 217.32 302.19 227.70 298.93 233.61 290.69
  C 240.14 281.57 237.92 269.40 229.42 262.35
  Q 224.77 258.48 219.14 256.53
  C 208.89 253.87 197.49 251.67 188.41 248.71
  C 158.67 239.04 132.43 222.77 112.27 198.80
  Q 111.06 197.36 112.52 198.55
  Q 123.91 207.88 137.26 214.75
  Q 137.41 214.82 137.53 214.94
  Q 137.74 215.15 137.90 214.76
  A 0.38 0.37 -60.3 0 0 137.79 214.33
  Q 113.05 193.97 102.77 165.23
  Q 102.80 162.70 101.61 161.64
  Q 93.51 154.40 85.30 147.20
  Q 84.82 146.79 85.45 146.79
  L 159.16 146.96
  Q 159.30 146.96 159.30 146.81
  L 159.29 146.55
  A 0.57 0.57 0.0 0 0 158.79 146.00
  L 115.49 140.70
  A 0.12 0.12 0.0 0 1 115.50 140.47
  L 178.00 139.42
  Q 178.54 139.41 178.61 138.88
  Q 179.84 130.28 173.27 126.53
  Q 167.31 125.53 165.45 127.16
  Z
  M 531.96 146.64
  L 539.99 146.78
  Q 541.14 146.80 540.28 147.57
  L 524.57 161.49
  A 2.96 2.93 -14.0 0 0 523.66 162.99
  Q 522.30 168.39 519.95 173.61
  Q 509.48 196.95 488.42 214.26
  A 0.23 0.23 0.0 0 0 488.33 214.42
  Q 488.25 214.99 488.74 214.74
  Q 502.34 207.85 513.76 198.31
  Q 514.51 197.69 513.91 198.45
  Q 512.15 200.70 510.31 202.75
  Q 488.48 227.01 457.89 240.79
  Q 443.57 247.25 432.40 250.24
  Q 421.88 253.06 411.67 255.28
  Q 404.26 256.89 398.16 261.19
  C 385.30 270.26 385.41 288.17 398.82 296.69
  Q 409.17 303.27 421.49 296.32
  Q 426.23 292.71 428.18 288.65
  Q 434.39 275.72 425.15 264.76
  Q 424.79 264.33 425.34 264.24
  Q 425.91 264.14 426.73 264.35
  Q 431.56 266.14 435.43 269.28
  Q 435.83 269.61 436.32 269.45
  Q 473.20 257.58 501.24 236.46
  Q 542.45 205.43 555.42 154.38
  Q 557.98 144.29 558.80 134.01
  Q 558.92 132.54 558.85 131.03
  Q 558.82 130.48 558.27 130.45
  L 553.14 130.18
  Q 550.61 129.69 548.00 129.56
  Q 521.84 128.24 494.60 127.73
  L 470.95 127.14
  Q 463.04 126.10 454.87 126.18
  C 449.01 126.23 446.80 133.66 447.27 138.46
  Q 447.36 139.38 448.29 139.40
  L 511.17 140.40
  Q 511.77 140.41 511.18 140.54
  C 510.51 140.69 509.89 140.60 509.20 140.71
  Q 488.41 143.89 467.50 146.11
  Q 467.19 146.14 467.21 146.46
  L 467.22 146.71
  Q 467.23 146.88 467.40 146.87
  L 531.96 146.64
  Z
  M 123.42 171.62
  C 137.56 196.78 161.19 214.76 188.89 222.91
  Q 189.48 223.09 190.09 223.01
  Q 191.64 222.82 191.06 221.37
  Q 180.95 195.89 174.97 170.76
  C 174.64 169.39 173.65 168.63 172.24 168.65
  Q 169.54 168.69 167.27 168.76
  Q 147.42 169.32 124.78 169.31
  A 1.56 1.55 -14.6 0 0 123.42 171.62
  Z
  M 440.84 205.69
  Q 437.92 214.05 434.91 221.53
  A 1.11 1.11 0.0 0 0 435.66 223.02
  Q 436.19 223.16 436.74 223.00
  Q 470.06 213.04 491.45 187.76
  Q 497.89 180.15 502.60 171.68
  A 1.55 1.55 0.0 0 0 501.26 169.37
  L 453.40 168.82
  A 2.17 2.17 0.0 0 0 451.27 170.47
  Q 446.77 188.69 440.84 205.69
  Z
  M 299.23 376.71
  Q 300.45 377.00 301.61 376.77
  L 313.10 376.86
  L 321.98 376.93
  L 334.43 376.92
  Q 336.96 376.92 336.40 374.45
  Q 332.34 356.44 328.65 339.67
  Q 327.37 333.83 322.04 332.34
  Q 319.52 331.64 322.10 331.25
  C 333.06 329.62 345.99 325.17 351.71 315.13
  A 0.35 0.35 0.0 0 0 351.35 314.61
  Q 312.57 320.34 274.68 314.56
  A 0.39 0.39 0.0 0 0 274.28 315.14
  C 280.37 326.02 294.34 329.58 305.85 331.75
  Q 307.16 332.00 305.83 332.07
  C 299.99 332.40 297.84 336.64 296.76 341.87
  Q 293.38 358.26 289.44 374.89
  A 1.61 1.61 0.0 0 0 291.04 376.87
  L 299.23 376.71
  Z
  M 262.24 391.19
  Q 258.12 390.90 256.07 395.07
  Q 254.14 399.00 252.43 403.23
  A 2.05 2.04 11.0 0 0 254.33 406.04
  L 371.51 406.06
  A 2.14 2.13 -10.8 0 0 373.50 403.14
  Q 371.72 398.62 369.58 394.44
  Q 367.64 390.65 363.12 391.02
  L 331.46 391.09
  L 262.24 391.19
  Z
  M 402.77 431.54
  Q 400.25 425.17 398.94 422.76
  Q 396.01 417.40 389.60 418.60
  L 355.61 418.55
  L 236.96 418.54
  C 234.90 418.52 232.58 418.19 230.75 419.01
  Q 228.36 420.08 227.19 422.42
  Q 224.54 427.72 221.82 434.48
  C 220.99 436.56 222.39 438.91 224.64 438.92
  Q 317.48 439.03 398.89 438.89
  Q 400.38 438.89 402.30 438.64
  A 2.52 2.52 0.0 0 0 404.46 435.71
  Q 404.11 433.73 402.77 431.54
  Z"
/>
<path fill="#aa5e04" d="
  M 296.81 66.15
  L 292.55 66.37
  A 0.89 0.86 18.5 0 0 291.94 66.66
  Q 291.64 67.01 291.18 66.92
  Q 290.74 66.84 290.27 66.87
  Q 284.23 67.34 278.24 67.38
  Q 277.04 67.39 274.80 67.72
  Q 273.07 67.97 271.31 67.88
  Q 270.11 68.29 268.56 68.18
  Q 275.44 66.66 282.55 66.93
  C 283.90 66.98 285.01 66.23 286.25 66.14
  Q 290.61 65.86 296.81 66.15
  Z"
/>
<path fill="#ffe31a" d="
  M 296.81 66.15
  Q 349.11 64.77 400.80 73.58
  L 400.17 82.62
  A 0.77 0.77 0.0 0 1 399.31 83.33
  Q 376.71 80.38 358.46 79.89
  Q 332.91 79.19 307.33 80.42
  Q 307.18 80.43 307.18 80.58
  L 307.18 80.59
  Q 307.18 80.76 307.35 80.76
  Q 354.19 83.16 398.10 99.61
  Q 399.06 99.97 398.98 100.99
  Q 396.29 133.13 389.82 164.59
  Q 386.22 182.06 380.79 198.50
  C 375.13 215.62 366.76 232.66 354.51 246.06
  C 343.70 257.70 329.49 264.79 313.57 265.31
  C 268.45 266.79 242.24 228.18 227.41 190.89
  Q 214.91 159.46 208.95 124.10
  Q 208.46 121.21 207.71 118.38
  Q 207.36 117.05 207.18 118.42
  C 206.95 120.20 207.65 121.90 207.88 123.68
  Q 210.35 142.28 214.47 165.71
  Q 219.13 192.20 227.65 216.90
  Q 232.10 229.80 239.07 241.41
  Q 238.87 241.47 238.67 241.54
  C 231.84 231.64 226.24 220.79 221.36 209.88
  C 208.29 177.93 200.88 144.09 196.93 109.98
  A 1.51 1.50 71.3 0 1 197.66 108.50
  Q 204.57 104.36 211.96 101.46
  Q 221.40 97.74 231.13 94.73
  Q 231.18 94.71 243.41 91.25
  Q 250.42 89.27 257.28 86.72
  L 266.22 85.15
  L 279.87 82.48
  Q 280.62 82.33 279.86 82.32
  Q 273.01 82.24 265.97 83.24
  C 258.51 83.35 250.97 83.12 243.70 83.83
  Q 234.40 84.75 225.12 85.85
  Q 210.58 87.58 195.96 90.83
  A 0.89 0.89 0.0 0 1 194.88 90.04
  L 194.04 80.53
  Q 204.07 77.34 214.78 75.59
  Q 210.98 77.40 206.94 78.45
  C 204.43 79.10 202.66 80.19 200.72 81.62
  A 1.12 1.12 0.0 0 0 201.10 83.60
  Q 203.14 84.14 205.12 84.10
  Q 215.33 83.93 226.08 83.39
  Q 228.43 83.27 230.86 82.60
  Q 232.75 82.07 234.75 82.13
  Q 242.60 82.36 250.22 81.34
  C 252.60 81.02 254.96 81.39 257.24 80.76
  Q 259.79 80.06 262.36 80.13
  Q 266.14 80.25 269.50 79.82
  Q 273.25 79.35 276.55 79.14
  Q 285.78 78.54 294.80 77.60
  Q 294.88 77.59 301.71 77.13
  Q 305.10 76.91 309.25 76.16
  Q 315.24 75.09 323.10 75.18
  Q 325.48 75.21 328.25 74.47
  Q 330.62 73.83 333.48 73.54
  Q 336.89 73.20 338.72 72.76
  Q 341.31 72.13 343.86 71.44
  A 0.63 0.63 0.0 0 0 344.26 70.54
  Q 344.07 70.18 343.68 70.06
  Q 339.28 68.68 334.75 68.26
  Q 325.72 67.41 316.16 67.61
  Q 315.77 67.62 315.41 67.47
  Q 315.22 67.39 315.00 67.39
  Q 301.66 67.34 287.56 67.41
  C 282.95 67.43 276.78 68.15 271.31 67.88
  Q 273.07 67.97 274.80 67.72
  Q 277.04 67.39 278.24 67.38
  Q 284.23 67.34 290.27 66.87
  Q 290.74 66.84 291.18 66.92
  Q 291.64 67.01 291.94 66.66
  A 0.89 0.86 18.5 0 1 292.55 66.37
  L 296.81 66.15
  Z"
/>
<path fill="#fef9de" d="
  M 214.78 75.59
  L 243.04 70.91
  Q 244.43 71.01 245.47 70.62
  L 268.56 68.18
  Q 270.11 68.29 271.31 67.88
  C 276.78 68.15 282.95 67.43 287.56 67.41
  Q 301.66 67.34 315.00 67.39
  Q 315.22 67.39 315.41 67.47
  Q 315.77 67.62 316.16 67.61
  Q 325.72 67.41 334.75 68.26
  Q 339.28 68.68 343.68 70.06
  Q 344.07 70.18 344.26 70.54
  A 0.63 0.63 0.0 0 1 343.86 71.44
  Q 341.31 72.13 338.72 72.76
  Q 336.89 73.20 333.48 73.54
  Q 330.62 73.83 328.25 74.47
  Q 325.48 75.21 323.10 75.18
  Q 315.24 75.09 309.25 76.16
  Q 305.10 76.91 301.71 77.13
  Q 294.88 77.59 294.80 77.60
  Q 285.78 78.54 276.55 79.14
  Q 273.25 79.35 269.50 79.82
  Q 266.14 80.25 262.36 80.13
  Q 259.79 80.06 257.24 80.76
  C 254.96 81.39 252.60 81.02 250.22 81.34
  Q 242.60 82.36 234.75 82.13
  Q 232.75 82.07 230.86 82.60
  Q 228.43 83.27 226.08 83.39
  Q 215.33 83.93 205.12 84.10
  Q 203.14 84.14 201.10 83.60
  A 1.12 1.12 0.0 0 1 200.72 81.62
  C 202.66 80.19 204.43 79.10 206.94 78.45
  Q 210.98 77.40 214.78 75.59
  Z"
/>
<path fill="#aa5e04" d="
  M 245.47 70.62
  Q 244.43 71.01 243.04 70.91
  Q 243.93 70.34 245.47 70.62
  Z"
/>
<path fill="#d37f01" d="
  M 400.80 73.58
  Q 417.93 76.29 434.19 81.15
  L 433.00 95.05
  Q 417.90 90.70 401.50 88.23
  Q 384.80 85.71 371.33 84.86
  C 367.93 84.64 364.48 83.85 361.13 84.09
  Q 358.03 84.32 361.11 84.76
  C 372.47 86.35 383.96 89.12 394.99 92.01
  C 408.06 95.43 420.90 99.96 432.39 106.90
  Q 431.41 114.81 430.51 122.50
  Q 425.08 168.73 410.80 213.00
  Q 405.07 230.76 394.58 250.44
  L 392.40 250.36
  Q 391.85 250.34 392.11 249.86
  Q 392.27 249.55 391.97 249.33
  A 4.02 3.32 54.7 0 0 389.20 248.58
  Q 388.20 248.74 387.22 248.13
  A 1.66 1.64 -29.1 0 0 386.25 247.86
  Q 383.76 247.94 381.37 247.56
  Q 377.95 247.01 376.52 246.95
  Q 369.89 246.66 361.49 246.43
  Q 360.93 246.42 360.46 246.12
  Q 359.26 245.33 357.96 245.78
  Q 357.13 246.08 356.91 245.18
  Q 356.81 244.78 356.54 245.09
  A 2.07 1.51 85.4 0 0 356.24 245.58
  Q 355.87 246.41 354.51 246.06
  C 366.76 232.66 375.13 215.62 380.79 198.50
  Q 386.22 182.06 389.82 164.59
  Q 396.29 133.13 398.98 100.99
  Q 399.06 99.97 398.10 99.61
  Q 354.19 83.16 307.35 80.76
  Q 307.18 80.76 307.18 80.59
  L 307.18 80.58
  Q 307.18 80.43 307.33 80.42
  Q 332.91 79.19 358.46 79.89
  Q 376.71 80.38 399.31 83.33
  A 0.77 0.77 0.0 0 0 400.17 82.62
  L 400.80 73.58
  Z"
/>
<path fill="#d37f01" d="
  M 194.04 80.53
  L 194.88 90.04
  A 0.89 0.89 0.0 0 0 195.96 90.83
  Q 210.58 87.58 225.12 85.85
  Q 234.40 84.75 243.70 83.83
  C 250.97 83.12 258.51 83.35 265.97 83.24
  L 262.03 83.81
  Q 250.80 85.12 239.52 86.36
  Q 224.01 88.06 210.76 90.67
  Q 196.93 93.40 185.19 97.90
  Q 184.79 98.05 184.76 97.62
  L 183.82 85.01
  Q 183.78 84.43 184.33 84.22
  L 194.04 80.53
  Z"
/>
<path fill="#ffe31a" d="
  M 434.19 81.15
  L 441.82 84.24
  A 0.56 0.56 0.0 0 1 442.17 84.79
  L 441.24 97.67
  A 0.31 0.31 0.0 0 1 440.82 97.94
  L 433.00 95.05
  L 434.19 81.15
  Z"
/>
<path fill="#aa5e04" d="
  M 266.22 85.15
  Q 266.55 84.74 266.60 84.44
  A 0.50 0.49 -85.4 0 0 266.12 83.87
  L 262.03 83.81
  L 265.97 83.24
  Q 273.01 82.24 279.86 82.32
  Q 280.62 82.33 279.87 82.48
  L 266.22 85.15
  Z"
/>
<path fill="#d37f01" d="
  M 257.28 86.72
  Q 250.42 89.27 243.41 91.25
  Q 231.18 94.71 231.13 94.73
  Q 221.40 97.74 211.96 101.46
  Q 204.57 104.36 197.66 108.50
  A 1.51 1.50 71.3 0 0 196.93 109.98
  C 200.88 144.09 208.29 177.93 221.36 209.88
  Q 218.24 209.36 215.12 207.90
  C 214.45 207.59 213.67 206.78 212.70 206.64
  Q 212.20 206.57 211.82 206.23
  Q 210.83 205.36 209.49 204.95
  Q 209.02 204.81 209.05 204.32
  Q 209.10 203.29 208.17 203.17
  Q 206.25 198.07 204.52 192.74
  Q 191.83 153.59 186.65 112.83
  Q 186.57 112.20 187.06 111.79
  C 196.73 103.78 209.17 98.41 223.48 94.13
  Q 238.49 89.64 253.00 87.04
  Q 255.18 86.66 257.28 86.72
  Z"
/>
<path fill="#ffe31a" d="
  M 432.39 106.90
  L 439.03 111.90
  Q 439.43 112.20 439.37 112.70
  Q 436.37 135.96 430.96 159.05
  C 423.13 192.52 411.71 224.40 393.65 253.33
  Q 392.54 253.42 394.58 250.44
  Q 405.07 230.76 410.80 213.00
  Q 425.08 168.73 430.51 122.50
  Q 431.41 114.81 432.39 106.90
  Z"
/>
<path fill="#bd6602" d="
  M 354.51 246.06
  Q 355.87 246.41 356.24 245.58
  A 2.07 1.51 85.4 0 1 356.54 245.09
  Q 356.81 244.78 356.91 245.18
  Q 357.13 246.08 357.96 245.78
  Q 359.26 245.33 360.46 246.12
  Q 360.93 246.42 361.49 246.43
  Q 369.89 246.66 376.52 246.95
  Q 377.95 247.01 381.37 247.56
  Q 383.76 247.94 386.25 247.86
  A 1.66 1.64 -29.1 0 1 387.22 248.13
  Q 388.20 248.74 389.20 248.58
  A 4.02 3.32 54.7 0 1 391.97 249.33
  Q 392.27 249.55 392.11 249.86
  Q 391.85 250.34 392.40 250.36
  L 394.58 250.44
  Q 392.54 253.42 393.65 253.33
  C 382.30 270.45 369.40 284.63 352.00 295.15
  Q 351.54 295.43 351.61 294.89
  Q 351.68 294.34 352.06 293.93
  Q 358.31 287.25 362.79 277.89
  Q 363.21 277.03 362.56 277.74
  C 345.22 296.61 316.90 301.56 292.94 295.15
  Q 275.20 290.40 263.37 277.76
  Q 262.76 277.11 263.15 277.91
  Q 267.69 287.05 273.56 293.61
  Q 275.85 296.16 272.90 294.42
  C 256.89 284.99 243.45 270.24 233.18 254.32
  Q 217.70 230.32 208.17 203.17
  Q 209.10 203.29 209.05 204.32
  Q 209.02 204.81 209.49 204.95
  Q 210.83 205.36 211.82 206.23
  Q 212.20 206.57 212.70 206.64
  C 213.67 206.78 214.45 207.59 215.12 207.90
  Q 218.24 209.36 221.36 209.88
  C 226.24 220.79 231.84 231.64 238.67 241.54
  Q 238.99 242.68 239.81 243.23
  Q 240.35 243.59 240.19 242.96
  Q 239.98 242.15 239.07 241.41
  Q 232.10 229.80 227.65 216.90
  Q 219.13 192.20 214.47 165.71
  Q 210.35 142.28 207.88 123.68
  C 207.65 121.90 206.95 120.20 207.18 118.42
  Q 207.36 117.05 207.71 118.38
  Q 208.46 121.21 208.95 124.10
  Q 214.91 159.46 227.41 190.89
  C 242.24 228.18 268.45 266.79 313.57 265.31
  C 329.49 264.79 343.70 257.70 354.51 246.06
  Z"
/>
<path fill="#ffe31a" d="
  M 173.27 126.53
  L 174.86 132.03
  A 0.98 0.97 -9.1 0 1 173.96 133.27
  L 91.97 136.38
  Q 93.80 135.88 95.50 135.38
  Q 97.31 134.84 99.05 134.64
  Q 107.91 133.59 116.78 132.64
  Q 140.95 130.04 165.45 127.16
  Q 167.31 125.53 173.27 126.53
  Z"
/>
<path fill="#aa5e04" d="
  M 470.95 127.14
  Q 467.80 129.21 467.90 133.03
  A 0.79 0.78 0.4 0 0 468.66 133.79
  L 531.82 136.46
  Q 532.52 140.55 529.94 143.17
  Q 529.55 143.57 529.46 144.12
  Q 529.37 144.63 529.01 145.02
  Q 528.88 145.17 529.07 145.25
  Q 529.21 145.31 529.35 145.30
  Q 530.34 145.23 529.54 145.81
  Q 529.40 145.92 529.33 146.09
  Q 529.12 146.56 529.64 146.57
  L 531.96 146.64
  L 467.40 146.87
  Q 467.23 146.88 467.22 146.71
  L 467.21 146.46
  Q 467.19 146.14 467.50 146.11
  Q 488.41 143.89 509.20 140.71
  C 509.89 140.60 510.51 140.69 511.18 140.54
  Q 511.77 140.41 511.17 140.40
  L 448.29 139.40
  Q 447.36 139.38 447.27 138.46
  C 446.80 133.66 449.01 126.23 454.87 126.18
  Q 463.04 126.10 470.95 127.14
  Z"
/>
<path fill="#fef9de" d="
  M 165.45 127.16
  Q 140.95 130.04 116.78 132.64
  Q 107.91 133.59 99.05 134.64
  Q 97.31 134.84 95.50 135.38
  Q 93.80 135.88 91.97 136.38
  L 82.08 136.88
  L 72.74 130.07
  C 80.24 129.31 88.78 129.22 94.76 128.86
  C 103.94 128.31 113.61 128.26 122.75 127.78
  Q 131.33 127.33 140.61 127.22
  Q 141.25 127.21 152.42 126.63
  Q 158.91 126.29 165.45 127.16
  Z"
/>
<path fill="#bd6602" d="
  M 173.27 126.53
  Q 179.84 130.28 178.61 138.88
  Q 178.54 139.41 178.00 139.42
  L 115.50 140.47
  A 0.12 0.12 0.0 0 0 115.49 140.70
  L 158.79 146.00
  A 0.57 0.57 0.0 0 1 159.29 146.55
  L 159.30 146.81
  Q 159.30 146.96 159.16 146.96
  L 85.45 146.79
  Q 84.82 146.79 85.30 147.20
  Q 93.51 154.40 101.61 161.64
  Q 102.80 162.70 102.77 165.23
  Q 100.31 164.28 98.51 167.25
  Q 97.15 169.50 96.23 170.44
  Q 95.88 170.79 95.69 171.24
  Q 95.20 172.37 94.45 173.35
  Q 94.11 173.78 93.93 174.30
  Q 93.79 174.69 93.88 175.08
  Q 94.06 175.88 93.32 175.54
  Q 92.92 175.35 92.55 175.31
  Q 84.02 156.93 82.08 136.88
  L 91.97 136.38
  L 173.96 133.27
  A 0.98 0.97 -9.1 0 0 174.86 132.03
  L 173.27 126.53
  Z"
/>
<path fill="#ffe31a" d="
  M 494.60 127.73
  Q 511.24 131.80 527.46 134.23
  Q 529.39 134.52 531.31 134.78
  Q 532.48 134.95 535.06 135.71
  Q 537.50 136.43 540.23 136.40
  L 531.82 136.46
  L 468.66 133.79
  A 0.79 0.78 0.4 0 1 467.90 133.03
  Q 467.80 129.21 470.95 127.14
  L 494.60 127.73
  Z"
/>
<path fill="#fef9de" d="
  M 494.60 127.73
  Q 521.84 128.24 548.00 129.56
  Q 550.61 129.69 553.14 130.18
  Q 552.92 131.26 553.09 131.46
  Q 551.76 131.75 551.15 132.20
  Q 548.06 134.46 544.97 136.83
  L 540.23 136.40
  Q 537.50 136.43 535.06 135.71
  Q 532.48 134.95 531.31 134.78
  Q 529.39 134.52 527.46 134.23
  Q 511.24 131.80 494.60 127.73
  Z"
/>
<path fill="#d37f01" d="
  M 73.20 130.06
  Q 73.23 132.13 73.22 134.21
  Q 73.21 136.44 73.47 138.33
  Q 81.71 197.46 128.92 232.85
  Q 159.47 255.74 198.01 265.11
  Q 195.31 266.23 192.83 267.59
  C 191.50 268.32 190.81 269.89 189.04 269.30
  Q 153.89 257.67 127.45 238.46
  Q 79.63 203.70 68.57 144.77
  Q 67.35 138.30 67.07 131.05
  Q 67.05 130.52 67.58 130.48
  L 73.20 130.06
  Z"
/>
<path fill="#ffe31a" d="
  M 73.20 130.06
  Q 72.97 130.06 72.74 130.07
  L 82.08 136.88
  Q 84.02 156.93 92.55 175.31
  Q 101.99 195.23 113.55 208.20
  Q 132.45 229.38 162.42 243.98
  Q 183.82 254.41 208.10 259.99
  A 2.81 2.71 44.0 0 0 209.37 259.99
  Q 214.77 258.75 220.31 259.44
  Q 225.40 261.15 229.23 265.29
  A 1.82 1.77 26.9 0 1 229.70 266.66
  L 229.67 266.99
  Q 229.61 267.75 229.04 267.23
  Q 223.01 261.74 215.26 261.81
  C 213.40 261.83 211.66 262.65 209.93 263.27
  Q 209.80 263.32 209.73 263.43
  Q 209.64 263.57 209.64 263.69
  Q 209.63 263.98 209.91 264.01
  Q 210.27 264.04 210.50 264.14
  Q 205.46 264.18 202.92 268.95
  Q 200.63 273.26 201.57 277.03
  Q 200.85 280.94 201.66 279.68
  Q 202.02 288.33 208.81 292.11
  Q 208.64 293.87 205.88 292.08
  Q 197.25 286.48 197.31 276.52
  Q 197.32 274.78 197.95 272.06
  Q 198.44 269.92 198.92 267.66
  L 201.11 264.79
  Q 201.50 264.28 200.88 264.43
  L 198.01 265.11
  Q 159.47 255.74 128.92 232.85
  Q 81.71 197.46 73.47 138.33
  Q 73.21 136.44 73.22 134.21
  Q 73.23 132.13 73.20 130.06
  Z"
/>
<path fill="#d37f01" d="
  M 426.73 264.35
  C 429.91 263.96 433.45 264.87 436.42 263.87
  Q 455.29 257.50 475.86 246.49
  Q 494.17 236.70 512.03 219.58
  Q 526.54 205.68 536.86 187.35
  Q 551.54 161.29 553.09 131.46
  Q 552.92 131.26 553.14 130.18
  L 558.27 130.45
  Q 558.82 130.48 558.85 131.03
  Q 558.92 132.54 558.80 134.01
  Q 557.98 144.29 555.42 154.38
  Q 542.45 205.43 501.24 236.46
  Q 473.20 257.58 436.32 269.45
  Q 435.83 269.61 435.43 269.28
  Q 431.56 266.14 426.73 264.35
  Z"
/>
<path fill="#ffe31a" d="
  M 553.09 131.46
  Q 551.54 161.29 536.86 187.35
  Q 526.54 205.68 512.03 219.58
  Q 494.17 236.70 475.86 246.49
  Q 455.29 257.50 436.42 263.87
  C 433.45 264.87 429.91 263.96 426.73 264.35
  Q 425.91 264.14 425.34 264.24
  Q 424.79 264.33 425.15 264.76
  Q 434.39 275.72 428.18 288.65
  Q 426.23 292.71 421.49 296.32
  L 421.33 295.65
  Q 421.20 295.10 421.61 294.70
  Q 429.67 286.86 427.19 274.58
  Q 425.20 264.75 415.48 261.11
  Q 414.52 260.75 415.53 260.56
  C 420.20 259.70 424.98 258.86 429.47 257.55
  Q 468.20 246.29 496.80 223.40
  C 523.44 202.08 542.47 171.01 544.97 136.83
  Q 548.06 134.46 551.15 132.20
  Q 551.76 131.75 553.09 131.46
  Z"
/>
<path fill="#d37f01" d="
  M 531.82 136.46
  L 540.23 136.40
  L 544.97 136.83
  C 542.47 171.01 523.44 202.08 496.80 223.40
  Q 468.20 246.29 429.47 257.55
  C 424.98 258.86 420.20 259.70 415.53 260.56
  Q 414.52 260.75 415.48 261.11
  Q 425.20 264.75 427.19 274.58
  Q 429.67 286.86 421.61 294.70
  Q 421.20 295.10 421.33 295.65
  L 421.49 296.32
  Q 409.17 303.27 398.82 296.69
  C 385.41 288.17 385.30 270.26 398.16 261.19
  Q 404.26 256.89 411.67 255.28
  Q 421.88 253.06 432.40 250.24
  Q 443.57 247.25 457.89 240.79
  Q 488.48 227.01 510.31 202.75
  Q 512.15 200.70 513.91 198.45
  Q 514.51 197.69 513.76 198.31
  Q 502.34 207.85 488.74 214.74
  Q 488.25 214.99 488.33 214.42
  A 0.23 0.23 0.0 0 1 488.42 214.26
  Q 509.48 196.95 519.95 173.61
  Q 522.30 168.39 523.66 162.99
  A 2.96 2.93 -14.0 0 1 524.57 161.49
  L 540.28 147.57
  Q 541.14 146.80 539.99 146.78
  L 531.96 146.64
  L 529.64 146.57
  Q 529.12 146.56 529.33 146.09
  Q 529.40 145.92 529.54 145.81
  Q 530.34 145.23 529.35 145.30
  Q 529.21 145.31 529.07 145.25
  Q 528.88 145.17 529.01 145.02
  Q 529.37 144.63 529.46 144.12
  Q 529.55 143.57 529.94 143.17
  Q 532.52 140.55 531.82 136.46
  Z
  M 424.35 279.32
  C 420.70 287.51 410.98 289.74 404.38 283.50
  C 398.12 277.58 400.22 267.98 407.51 263.86
  Q 408.18 263.49 407.42 263.58
  C 392.95 265.38 388.85 284.21 401.17 291.83
  Q 406.44 295.09 412.07 293.76
  Q 423.43 291.07 424.48 279.19
  Q 424.48 279.13 424.46 279.07
  Q 424.43 279.01 424.39 279.07
  Q 424.36 279.11 424.36 279.16
  Q 424.36 279.19 424.37 279.22
  Q 424.37 279.27 424.35 279.32
  Z
  M 414.26 265.22
  A 8.82 8.81 4.7 0 0 405.77 272.42
  A 8.84 8.84 0.0 0 0 408.72 280.77
  A 8.85 8.83 -36.7 0 0 418.04 282.11
  A 8.83 8.82 82.8 0 0 423.16 275.49
  A 8.84 8.84 0.0 0 0 419.90 267.10
  A 8.86 8.80 63.3 0 0 414.26 265.22
  Z"
/>
<path fill="#d37f01" d="
  M 102.77 165.23
  Q 113.05 193.97 137.79 214.33
  A 0.38 0.37 -60.3 0 1 137.90 214.76
  Q 137.74 215.15 137.53 214.94
  Q 137.41 214.82 137.26 214.75
  Q 123.91 207.88 112.52 198.55
  Q 111.06 197.36 112.27 198.80
  C 132.43 222.77 158.67 239.04 188.41 248.71
  C 197.49 251.67 208.89 253.87 219.14 256.53
  Q 219.68 258.82 220.31 259.44
  Q 214.77 258.75 209.37 259.99
  A 2.81 2.71 44.0 0 1 208.10 259.99
  Q 183.82 254.41 162.42 243.98
  Q 132.45 229.38 113.55 208.20
  Q 101.99 195.23 92.55 175.31
  Q 92.92 175.35 93.32 175.54
  Q 94.06 175.88 93.88 175.08
  Q 93.79 174.69 93.93 174.30
  Q 94.11 173.78 94.45 173.35
  Q 95.20 172.37 95.69 171.24
  Q 95.88 170.79 96.23 170.44
  Q 97.15 169.50 98.51 167.25
  Q 100.31 164.28 102.77 165.23
  Z"
/>
<path fill="#d37f01" d="
  M 238.67 241.54
  Q 238.87 241.47 239.07 241.41
  Q 239.98 242.15 240.19 242.96
  Q 240.35 243.59 239.81 243.23
  Q 238.99 242.68 238.67 241.54
  Z"
/>
<path fill="#aa5e04" d="
  M 219.14 256.53
  Q 224.77 258.48 229.42 262.35
  C 237.92 269.40 240.14 281.57 233.61 290.69
  C 227.70 298.93 217.32 302.19 208.01 298.08
  C 196.28 292.91 191.32 278.37 198.92 267.66
  Q 198.44 269.92 197.95 272.06
  Q 197.32 274.78 197.31 276.52
  Q 197.25 286.48 205.88 292.08
  Q 208.64 293.87 208.81 292.11
  Q 217.53 296.02 224.19 292.29
  C 231.93 287.97 234.30 278.60 229.97 270.87
  C 227.99 267.34 223.67 264.66 219.83 264.07
  Q 218.46 263.86 219.63 264.61
  C 233.09 273.23 220.40 293.93 206.08 284.85
  Q 203.63 283.30 201.66 279.68
  Q 200.85 280.94 201.57 277.03
  Q 202.72 280.03 205.41 281.69
  Q 212.20 285.82 217.38 282.10
  C 223.24 277.90 223.11 270.37 217.19 266.08
  Q 214.84 264.38 211.92 264.57
  L 210.50 264.14
  Q 210.27 264.04 209.91 264.01
  Q 209.63 263.98 209.64 263.69
  Q 209.64 263.57 209.73 263.43
  Q 209.80 263.32 209.93 263.27
  C 211.66 262.65 213.40 261.83 215.26 261.81
  Q 223.01 261.74 229.04 267.23
  Q 229.61 267.75 229.67 266.99
  L 229.70 266.66
  A 1.82 1.77 26.9 0 0 229.23 265.29
  Q 225.40 261.15 220.31 259.44
  Q 219.68 258.82 219.14 256.53
  Z"
/>
<path fill="#040102" d="
  M 424.37 279.22
  Q 424.36 279.19 424.36 279.16
  Q 424.36 279.11 424.39 279.07
  Q 424.43 279.01 424.46 279.07
  Q 424.48 279.13 424.48 279.19
  Q 423.43 291.07 412.07 293.76
  Q 406.44 295.09 401.17 291.83
  C 388.85 284.21 392.95 265.38 407.42 263.58
  Q 408.18 263.49 407.51 263.86
  C 400.22 267.98 398.12 277.58 404.38 283.50
  C 410.98 289.74 420.70 287.51 424.35 279.32
  Q 424.37 279.27 424.37 279.22
  Z"
/>
<path fill="#040102" d="
  M 208.81 292.11
  Q 202.02 288.33 201.66 279.68
  Q 203.63 283.30 206.08 284.85
  C 220.40 293.93 233.09 273.23 219.63 264.61
  Q 218.46 263.86 219.83 264.07
  C 223.67 264.66 227.99 267.34 229.97 270.87
  C 234.30 278.60 231.93 287.97 224.19 292.29
  Q 217.53 296.02 208.81 292.11
  Z"
/>
<path fill="#fef9de" d="
  M 210.50 264.14
  L 211.92 264.57
  Q 212.72 264.88 213.26 265.35
  Q 213.65 265.69 213.58 266.20
  C 213.07 270.41 208.00 271.92 206.34 275.83
  Q 205.96 276.75 206.06 278.72
  Q 206.15 280.63 205.41 281.69
  Q 202.72 280.03 201.57 277.03
  Q 200.63 273.26 202.92 268.95
  Q 205.46 264.18 210.50 264.14
  Z"
/>
<path fill="#ffe31a" d="
  M 211.92 264.57
  Q 214.84 264.38 217.19 266.08
  C 223.11 270.37 223.24 277.90 217.38 282.10
  Q 212.20 285.82 205.41 281.69
  Q 206.15 280.63 206.06 278.72
  Q 205.96 276.75 206.34 275.83
  C 208.00 271.92 213.07 270.41 213.58 266.20
  Q 213.65 265.69 213.26 265.35
  Q 212.72 264.88 211.92 264.57
  Z"
/>
<path fill="#fef9de" d="
  M 418.04 282.11
  Q 417.41 281.73 417.34 281.00
  Q 416.55 273.18 414.26 265.22
  A 8.86 8.80 63.3 0 1 419.90 267.10
  A 8.84 8.84 0.0 0 1 423.16 275.49
  A 8.83 8.82 82.8 0 1 418.04 282.11
  Z"
/>
<path fill="#ffe31a" d="
  M 414.26 265.22
  Q 416.55 273.18 417.34 281.00
  Q 417.41 281.73 418.04 282.11
  A 8.85 8.83 -36.7 0 1 408.72 280.77
  A 8.84 8.84 0.0 0 1 405.77 272.42
  A 8.82 8.81 4.7 0 1 414.26 265.22
  Z"
/>
<path fill="#aa5e04" d="
  M 321.98 376.93
  Q 320.34 363.13 318.31 349.47
  C 317.73 345.56 318.03 339.26 312.73 338.56
  Q 306.47 337.74 305.01 343.75
  Q 303.29 350.81 302.53 357.85
  L 299.23 376.71
  L 291.04 376.87
  A 1.61 1.61 0.0 0 1 289.44 374.89
  Q 293.38 358.26 296.76 341.87
  C 297.84 336.64 299.99 332.40 305.83 332.07
  Q 307.16 332.00 305.85 331.75
  C 294.34 329.58 280.37 326.02 274.28 315.14
  A 0.39 0.39 0.0 0 1 274.68 314.56
  Q 312.57 320.34 351.35 314.61
  A 0.35 0.35 0.0 0 1 351.71 315.13
  C 345.99 325.17 333.06 329.62 322.10 331.25
  Q 319.52 331.64 322.04 332.34
  Q 327.37 333.83 328.65 339.67
  Q 332.34 356.44 336.40 374.45
  Q 336.96 376.92 334.43 376.92
  L 321.98 376.93
  Z
  M 297.77 324.23
  Q 313.13 330.89 326.70 323.99
  Q 329.22 322.70 326.39 322.71
  Q 311.11 322.72 294.33 321.74
  Q 293.22 321.67 294.15 322.28
  Q 295.94 323.44 297.77 324.23
  Z"
/>
<path fill="#ffe31a" d="
  M 297.77 324.23
  Q 295.94 323.44 294.15 322.28
  Q 293.22 321.67 294.33 321.74
  Q 311.11 322.72 326.39 322.71
  Q 329.22 322.70 326.70 323.99
  Q 313.13 330.89 297.77 324.23
  Z"
/>
<path fill="#ffe31a" d="
  M 321.98 376.93
  L 313.10 376.86
  Q 307.23 374.89 304.11 368.97
  Q 303.51 364.98 303.66 360.00
  Q 303.72 358.40 302.53 357.85
  Q 303.29 350.81 305.01 343.75
  Q 306.47 337.74 312.73 338.56
  C 318.03 339.26 317.73 345.56 318.31 349.47
  Q 320.34 363.13 321.98 376.93
  Z"
/>
<path fill="#fef9de" d="
  M 304.11 368.97
  Q 307.23 374.89 313.10 376.86
  L 301.61 376.77
  L 304.11 368.97
  Z"
/>
<path fill="#fef9de" d="
  M 331.46 391.09
  Q 331.42 391.60 331.20 391.96
  Q 331.00 392.27 330.64 392.30
  Q 313.26 393.53 296.09 394.03
  Q 289.87 394.22 281.88 395.16
  Q 273.92 396.10 265.85 395.73
  Q 265.40 395.71 265.13 395.36
  L 262.49 391.92
  Q 262.25 391.79 262.24 391.19
  L 331.46 391.09
  Z"
/>
<path fill="#ffe31a" d="
  M 331.46 391.09
  L 363.12 391.02
  Q 366.18 394.57 368.22 400.00
  Q 368.49 400.46 368.23 400.78
  Q 367.91 401.19 367.47 400.91
  L 366.18 400.08
  C 363.41 397.47 360.84 396.04 356.77 396.05
  Q 329.75 396.14 302.75 396.40
  Q 284.50 396.58 268.90 396.47
  Q 265.62 396.45 263.76 397.37
  Q 261.49 398.49 259.46 400.60
  L 257.58 402.47
  A 0.32 0.32 0.0 0 1 257.04 402.29
  L 256.95 401.67
  Q 258.99 397.37 261.01 393.00
  Q 261.30 392.37 262.49 391.92
  L 265.13 395.36
  Q 265.40 395.71 265.85 395.73
  Q 273.92 396.10 281.88 395.16
  Q 289.87 394.22 296.09 394.03
  Q 313.26 393.53 330.64 392.30
  Q 331.00 392.27 331.20 391.96
  Q 331.42 391.60 331.46 391.09
  Z"
/>
<path fill="#aa5e04" d="
  M 363.12 391.02
  Q 367.64 390.65 369.58 394.44
  Q 371.72 398.62 373.50 403.14
  A 2.14 2.13 -10.8 0 1 371.51 406.06
  L 254.33 406.04
  A 2.05 2.04 11.0 0 1 252.43 403.23
  Q 254.14 399.00 256.07 395.07
  Q 258.12 390.90 262.24 391.19
  Q 262.25 391.79 262.49 391.92
  Q 261.30 392.37 261.01 393.00
  Q 258.99 397.37 256.95 401.67
  Q 256.61 401.83 256.55 402.21
  A 0.72 0.71 -73.8 0 0 256.96 402.97
  C 258.89 403.84 260.84 403.13 262.85 403.13
  Q 275.35 403.10 287.95 403.15
  Q 288.25 403.15 288.53 403.26
  Q 288.74 403.34 288.97 403.34
  Q 328.27 403.42 367.98 403.34
  A 1.20 1.17 24.3 0 0 368.75 403.06
  Q 370.29 401.79 368.22 400.00
  Q 366.18 394.57 363.12 391.02
  Z"
/>
<path fill="#bd6602" d="
  M 366.18 400.08
  Q 366.18 400.33 366.08 400.62
  Q 365.91 401.11 365.40 401.11
  C 345.66 401.23 325.96 400.77 306.17 400.91
  C 303.84 400.93 300.45 401.27 297.49 401.12
  Q 292.94 400.88 291.00 400.94
  Q 275.45 401.46 259.46 400.60
  Q 261.49 398.49 263.76 397.37
  Q 265.62 396.45 268.90 396.47
  Q 284.50 396.58 302.75 396.40
  Q 329.75 396.14 356.77 396.05
  C 360.84 396.04 363.41 397.47 366.18 400.08
  Z"
/>
<path fill="#d37f01" d="
  M 366.18 400.08
  L 367.47 400.91
  Q 367.91 401.19 368.23 400.78
  Q 368.49 400.46 368.22 400.00
  Q 370.29 401.79 368.75 403.06
  A 1.20 1.17 24.3 0 1 367.98 403.34
  Q 328.27 403.42 288.97 403.34
  Q 288.74 403.34 288.53 403.26
  Q 288.25 403.15 287.95 403.15
  Q 275.35 403.10 262.85 403.13
  C 260.84 403.13 258.89 403.84 256.96 402.97
  A 0.72 0.71 -73.8 0 1 256.55 402.21
  Q 256.61 401.83 256.95 401.67
  L 257.04 402.29
  A 0.32 0.32 0.0 0 0 257.58 402.47
  L 259.46 400.60
  Q 275.45 401.46 291.00 400.94
  Q 292.94 400.88 297.49 401.12
  C 300.45 401.27 303.84 400.93 306.17 400.91
  C 325.96 400.77 345.66 401.23 365.40 401.11
  Q 365.91 401.11 366.08 400.62
  Q 366.18 400.33 366.18 400.08
  Z"
/>
<path fill="#aa5e04" d="
  M 236.96 418.54
  L 235.84 418.85
  Q 233.05 423.33 230.78 428.48
  C 230.15 429.92 228.74 430.95 229.71 432.77
  A 1.67 1.66 -16.2 0 0 231.30 433.64
  Q 236.54 433.26 242.25 433.56
  Q 247.65 433.83 252.85 433.85
  Q 302.72 434.04 351.05 433.99
  Q 369.10 433.97 388.58 433.55
  C 390.84 433.51 393.00 434.02 395.32 433.86
  Q 397.85 433.70 397.62 431.28
  Q 397.58 430.80 398.05 430.79
  Q 399.80 430.75 401.16 431.97
  A 1.58 1.50 53.6 0 0 402.79 432.26
  Q 403.09 432.13 402.77 431.54
  Q 404.11 433.73 404.46 435.71
  A 2.52 2.52 0.0 0 1 402.30 438.64
  Q 400.38 438.89 398.89 438.89
  Q 317.48 439.03 224.64 438.92
  C 222.39 438.91 220.99 436.56 221.82 434.48
  Q 224.54 427.72 227.19 422.42
  Q 228.36 420.08 230.75 419.01
  C 232.58 418.19 234.90 418.52 236.96 418.54
  Z"
/>
<path fill="#fef9de" d="
  M 236.96 418.54
  L 355.61 418.55
  Q 353.94 420.08 349.25 419.89
  Q 341.73 419.59 311.24 421.15
  Q 296.85 421.89 282.22 422.06
  Q 275.62 422.13 270.75 422.64
  Q 256.55 424.10 247.04 424.20
  L 239.50 424.33
  Q 238.99 424.34 238.67 423.95
  Q 236.70 421.56 235.84 418.85
  L 236.96 418.54
  Z"
/>
<path fill="#ffe31a" d="
  M 355.61 418.55
  L 389.60 418.60
  Q 393.21 423.51 395.54 429.58
  Q 396.34 431.66 394.57 430.31
  Q 394.00 429.87 393.60 429.31
  L 388.48 425.43
  A 3.83 3.82 -26.2 0 0 386.15 424.64
  L 284.71 424.61
  L 247.04 424.20
  Q 256.55 424.10 270.75 422.64
  Q 275.62 422.13 282.22 422.06
  Q 296.85 421.89 311.24 421.15
  Q 341.73 419.59 349.25 419.89
  Q 353.94 420.08 355.61 418.55
  Z"
/>
<path fill="#d37f01" d="
  M 402.77 431.54
  Q 403.09 432.13 402.79 432.26
  A 1.58 1.50 53.6 0 1 401.16 431.97
  Q 399.80 430.75 398.05 430.79
  Q 397.58 430.80 397.62 431.28
  Q 397.85 433.70 395.32 433.86
  C 393.00 434.02 390.84 433.51 388.58 433.55
  Q 369.10 433.97 351.05 433.99
  Q 302.72 434.04 252.85 433.85
  Q 247.65 433.83 242.25 433.56
  Q 236.54 433.26 231.30 433.64
  A 1.67 1.66 -16.2 0 1 229.71 432.77
  C 228.74 430.95 230.15 429.92 230.78 428.48
  Q 233.05 423.33 235.84 418.85
  Q 236.70 421.56 238.67 423.95
  Q 238.99 424.34 239.50 424.33
  L 247.04 424.20
  L 284.71 424.61
  L 240.54 424.89
  Q 238.85 424.90 237.44 425.83
  Q 235.15 427.34 233.15 428.94
  Q 231.63 430.16 233.58 430.16
  Q 309.49 430.08 382.36 430.36
  Q 382.54 430.36 387.09 430.76
  Q 390.80 431.08 393.60 429.31
  Q 394.00 429.87 394.57 430.31
  Q 396.34 431.66 395.54 429.58
  Q 393.21 423.51 389.60 418.60
  Q 396.01 417.40 398.94 422.76
  Q 400.25 425.17 402.77 431.54
  Z"
/>
<path fill="#bd6602" d="
  M 284.71 424.61
  L 386.15 424.64
  A 3.83 3.82 -26.2 0 1 388.48 425.43
  L 393.60 429.31
  Q 390.80 431.08 387.09 430.76
  Q 382.54 430.36 382.36 430.36
  Q 309.49 430.08 233.58 430.16
  Q 231.63 430.16 233.15 428.94
  Q 235.15 427.34 237.44 425.83
  Q 238.85 424.90 240.54 424.89
  L 284.71 424.61
  Z"
/>
</svg>
